# xmcd CD database file
#
# Track frame offsets:
#	150
#	13400
#	28860
#	47242
#	61075
#	76660
#	93127
#	110580
#	125155
#	141877
#	156597
#	170347
#	188165
#
# Disc length: 2688 seconds
#
# Revision: 0
# Processed by: cddbd v1.5.1PL0 Copyright (c) Steve Scherf et al.
# Submitted via: CDex 1.51
#
DISCID=b00a7e0d
DTITLE=Sara Evans - No Place That Far
DYEAR=2000
DGENRE=Country
TTITLE0=Cryin' Game
TTITLE1=No Place That Far
TTITLE2=Almost New
TTITLE3=Fool, I'm A Woman
TTITLE4=I Thought I'd See Your Face Again
TTITLE5=I Only Have Eyes For You
TTITLE6=Time Won't Tell
TTITLE7=These Days
TTITLE8=The Knot Comes Untied
TTITLE9=Love, Don't  Be A Stranger
TTITLE10=Cupid
TTITLE11=The Great Unknown
TTITLE12=There's Only One
EXTD=YEAR: 2000
EXTT0=
EXTT1=
EXTT2=
EXTT3=
EXTT4=
EXTT5=
EXTT6=
EXTT7=
EXTT8=
EXTT9=
EXTT10=
EXTT11=
EXTT12=
PLAYORDER=
